<?xml version="1.0" encoding="UTF-8" standalone="no"?>
<!DOCTYPE svg PUBLIC "-//W3C//DTD SVG 1.1//EN" "http://www.w3.org/Graphics/SVG/1.1/DTD/svg11.dtd">
<svg width="100%" height="100%" viewBox="0 0 128 128" version="1.1" xmlns="http://www.w3.org/2000/svg" xmlns:xlink="http://www.w3.org/1999/xlink" xml:space="preserve" xmlns:serif="http://www.serif.com/" style="fill-rule:evenodd;clip-rule:evenodd;stroke-linecap:round;stroke-linejoin:round;">
    <g id="Background">
        <path d="M128,32C128,14.339 113.661,0 96,0L32,0C14.339,0 0,14.339 0,32L0,96C0,113.661 14.339,128 32,128L96,128C113.661,128 128,113.661 128,96L128,32Z" style="fill:rgb(0,22,30);"/>
    </g>
    <g transform="matrix(5.47832,0,0,5.47832,-1.73986,-1.73986)">
        <path d="M12,13C15.017,13 17.5,10.517 17.5,7.5C17.5,4.483 15.017,2 12,2C8.983,2 6.5,4.483 6.5,7.5C6.5,10.517 8.983,13 12,13Z" style="fill:none;fill-rule:nonzero;stroke:rgb(0,173,238);stroke-width:1.8px;"/>
    </g>
    <g transform="matrix(5.47832,0,0,5.47832,-1.73986,-1.73986)">
        <path d="M8.5,12L6,22L12,20L18,22L15.5,12" style="fill:none;fill-rule:nonzero;stroke:rgb(0,173,238);stroke-width:1.8px;"/>
    </g>
</svg>
